<svg xmlns="http://www.w3.org/2000/svg" version="1.1" xmlns:xlink="http://www.w3.org/1999/xlink" xmlns:svgjs="http://svgjs.dev/svgjs" width="1000" height="1125" viewBox="0 0 1000 1125"><g transform="matrix(1,0,0,1,1.7053025658242404e-13,0)"><svg viewBox="0 0 320 360" data-background-color="#ffffff" preserveAspectRatio="xMidYMid meet" height="1125" width="1000" xmlns="http://www.w3.org/2000/svg" xmlns:xlink="http://www.w3.org/1999/xlink"><g id="tight-bounds" transform="matrix(1,0,0,1,0,0)"><svg viewBox="0 0 320 360" height="360" width="320"><g><svg></svg></g><g><svg viewBox="0 0 320 360" height="360" width="320"><g><path xmlns="http://www.w3.org/2000/svg" d="M20.961 227.22l3.726 4.658-1.863-6.056c-0.466-2.795-3.726 0.466-1.863 1.398M25.153 224.425c1.397 2.329 2.795 4.658 2.795 6.987 0 3.261 2.795 4.658 5.123 5.589-3.261-3.726-5.124-13.974-7.918-12.576M204.017 26.929c7.918 0 15.371-0.932 23.756 0.931 20.495 5.124 37.729 15.371 49.374 29.811l32.606 52.169c1.397 13.042 4.192 27.482 3.726 43.319 3.261 0 2.795-4.658 6.521-5.59-3.726 9.316-5.59 20.961-6.521 34.469-2.329-7.453 0-18.632 0.466-24.687-3.261 5.124-5.124 1.397-5.124-0.932 0.466-3.726-1.397-3.261-2.795-4.658-5.124-4.658-8.384-9.782-12.11-17.7 2.329-6.055 2.795-14.905-4.658-19.563-2.329-1.397-5.124-3.726-6.521-7.453-1.863-5.124-5.124-11.179-4.193-19.097 0.466-2.329-6.987 5.124-11.179 1.863-18.166-12.576-36.332-27.016-58.224-39.127-11.645 0-20.029-4.192-24.221-9.316-3.726-4.658-0.932-10.713 4.658-11.179 3.261 0 6.987-0.932 9.782 0.932 0.466-1.863 2.329-4.192 4.657-4.192M157.904 16.215l0.932 0.466c4.658 0.932 6.987 7.453 12.11 5.124 0 3.261 0.466 6.521-0.466 8.85-1.397 3.726-5.59 3.726-8.85 3.726-31.208-1.863-49.374 11.179-68.471 22.358-5.124 3.261-10.713 5.59-14.906 9.782-20.029 18.632-41.921 35.866-47.045 70.335l-4.192 38.195c-0.466 4.192-5.124 8.384-4.192 13.508l3.26 22.824c-3.261-3.261-5.124 0.932-4.192 2.795 0.466 1.397 2.329 6.055 5.124 1.863 3.726 6.987 7.453 20.495 12.576 26.55 15.837 18.632 36.332 35.4 53.101 52.169 4.192-0.932 7.453-0.932 8.384-3.727 1.397 2.795-1.397 5.59-3.726 6.056 7.453 4.658 15.837 8.85 27.016 9.781 14.44 0.932 27.948 3.261 40.524 6.522 6.521-1.863 13.042-2.795 20.029-3.261 2.329 0 3.726-3.726 6.521-4.658l0.466-4.658c2.795 4.192 2.329-1.397 0.466-4.192 3.261 2.795 4.192 5.124 5.589 6.987 0-1.397 3.726-6.521 3.727-0.466l0.931-6.055c1.397-0.932 1.863 5.124 3.261 0.931 1.397-4.192 4.192-0.932 6.987-2.329-0.932 1.863-0.466 5.59 2.794 3.261l3.727-3.261c2.329 5.59 6.055 3.261 7.918 2.329 20.495-13.042 40.99-28.413 60.553-43.784l-0.466 6.055 2.329-7.453c2.329 2.329 4.192 0.466 5.124-0.931 2.795-4.658 6.521-9.316 12.577-13.508-7.453 20.029-16.303 35.866-27.482 48.908l-4.658 5.59c0 3.261-0.932 7.453-4.658 7.918-1.863 0.466-5.59-0.932-8.384 1.863-1.397 1.863 3.261 5.59-0.466 2.795-3.261-2.329-6.521 0-10.248 0.932-2.795 0.932 1.863 3.726 2.795 5.589 0.932 1.863 1.863 3.726 1.398 6.056l-5.124-5.59c-6.055 3.261-9.782 9.316-14.906 13.974-2.329 1.863-1.397 5.124-1.397 7.918-3.261 0-6.987-0.932-8.85 0.932-1.397 1.863-0.932 4.658-0.932 7.453-4.658-0.466-5.124-7.453-9.315-6.056-4.192 0.932-8.85 1.397-12.577 3.727 2.795 5.59-4.658 2.329-3.726 3.26-6.987-4.192-13.042-7.453-20.495-4.658-15.837-5.124-35.4-2.795-49.84-0.931 0-2.329 0.466-4.658-0.466-5.124-0.932 2.329-3.726 1.397-3.26 1.397-8.85-6.055-17.7-9.782-27.016-14.905-8.384 0.932-16.303-3.261-18.632-5.59-6.521-6.055-13.974-2.795-20.029-4.192-13.042-3.261-17.7-16.769-19.098-26.084-0.932-4.658-4.658-6.521-6.055-6.056-6.055-19.563-15.371-37.263-22.824-55.429-1.863-4.658-1.397-9.316-1.397-14.44 2.329 0.932 4.658 0.466 4.192-2.794-2.329-15.371-7.918-27.016-13.974-38.195 3.261-15.837 3.726-34.469 11.179-48.443 6.521-12.576 18.632-19.098 27.016-29.811 2.795-3.726 2.795-8.85 5.59-12.11 9.316-9.316 18.632-19.098 28.879-27.482 4.658-3.726 10.247 0 17.234-1.397 2.329-8.384 11.645-15.837 20.495-13.508 3.726 0.932 11.179-8.85 13.508-9.782 3.726-1.397 1.863 3.726 1.863 6.987 8.85-6.987 20.961-10.713 32.14-14.906" fill="#82cd47" fill-rule="nonzero" stroke="none" stroke-width="1" stroke-linecap="butt" stroke-linejoin="miter" stroke-miterlimit="10" stroke-dasharray="" stroke-dashoffset="0" font-family="none" font-weight="none" font-size="none" text-anchor="none" style="mix-blend-mode: normal" data-fill-palette-color="tertiary"></path></g><g transform="matrix(1,0,0,1,64,133.8872870249017)"><svg viewBox="0 0 192 92.22542595019661" height="92.22542595019661" width="192"><g><svg viewBox="0 0 192 92.22542595019661" height="92.22542595019661" width="192"><g><svg viewBox="0 0 192 92.22542595019661" height="92.22542595019661" width="192"><g><svg viewBox="0 0 192 92.22542595019661" height="92.22542595019661" width="192"><g id="textblocktransform"><svg viewBox="0 0 192 92.22542595019661" height="92.22542595019661" width="192" id="textblock"><g><svg viewBox="0 0 192 92.22542595019661" height="92.22542595019661" width="192"><g transform="matrix(1,0,0,1,0,0)"><svg width="192" viewBox="1 -35.79999923706055 76.30000305175781 36.64999771118164" height="92.22542595019661" data-palette-color="#82cd47"><path d="M12.55 0.2L7.2 0.1 2.95 0.2Q1.85 0.2 1.85-0.6L1.85-0.6Q1.85-1.05 2.5-1.18 3.15-1.3 4.1-1.95 5.05-2.6 5.45-4.08 5.85-5.55 6.3-13.7 6.75-21.85 6.75-25.55 6.75-29.25 5.55-31.38 4.35-33.5 1.65-33.8L1.65-33.8Q1-33.85 1-34.55L1-34.55Q1-34.85 1.35-35.13 1.7-35.4 2.25-35.4L2.25-35.4 4.15-35.35 6.6-35.45Q7.05-35.45 7.65-35.18 8.25-34.9 8.35-34.68 8.45-34.45 8.9-33.93 9.35-33.4 10.1-32.55 10.85-31.7 11.45-30.9L11.45-30.9Q18.25-22.05 29.65-9.55L29.65-9.55Q29.95-9.2 30.38-8.75 30.8-8.3 30.98-8.08 31.15-7.85 31.35-7.65L31.35-7.65Q31.7-7.3 31.9-7.3L31.9-7.3Q32.4-7.3 32.4-10.4L32.4-10.4 32.4-16.25 32.3-26.5 32.3-26.85Q32.3-31.45 30.7-32.7L30.7-32.7Q30.1-33.15 29.7-33.27 29.3-33.4 28.55-33.55L28.55-33.55Q26.5-33.95 26.5-34.68 26.5-35.4 27.45-35.4L27.45-35.4 32.2-35.35Q32.2-35.35 36.7-35.45L36.7-35.45Q37.55-35.45 37.88-35.27 38.2-35.1 38.2-34.75 38.2-34.4 37.9-34.2L37.9-34.2Q37.5-33.95 36.45-33.6L36.45-33.6Q34.8-32.7 34.8-27.95L34.8-27.95 34.8-26.05 34.25-1.3 34.25-0.3Q34.25 0.85 33.55 0.85L33.55 0.85Q33.1 0.85 32.75 0.5L32.75 0.5Q16.15-18.75 12.93-22.38 9.7-26 9.35-26L9.35-26Q8.85-26 8.85-21.93 8.85-17.85 8.65-12.38 8.45-6.9 8.45-6.4L8.45-6.4Q8.45-4.15 9.22-2.98 10-1.8 10.9-1.65 11.8-1.5 12.58-1.33 13.35-1.15 13.35-0.63 13.35-0.1 13.18 0.05 13 0.2 12.55 0.2L12.55 0.2ZM45.6-18.45L45.6-18.45 45.55-31.15Q45.55-32 44.72-32.88 43.9-33.75 43.05-33.8 42.2-33.85 41.87-33.9 41.55-33.95 41.22-34.23 40.9-34.5 40.9-34.98 40.9-35.45 41.32-35.52 41.75-35.6 43.45-35.6L43.45-35.6 47.8-35.6 57.55-35.8Q64.8-35.8 70.8-31.7L70.8-31.7Q73.7-29.75 75.5-26.58 77.3-23.4 77.3-19.7 77.3-16 76.82-13.43 76.35-10.85 75.25-8.97 74.15-7.1 73.05-5.93 71.95-4.75 70.25-3.35 68.55-1.95 65.7-0.9 62.85 0.15 59.85 0.15L59.85 0.15 47.85-0.1Q46.1-0.1 44.6 0.03 43.1 0.15 42.85 0.15L42.85 0.15Q41.65 0.15 41.65-0.5L41.65-0.5Q41.65-0.9 41.82-1.07 42-1.25 42.57-1.4 43.15-1.55 43.4-1.65L43.4-1.65Q44.2-2 44.87-2.98 45.55-3.95 45.55-4.9L45.55-4.9Q45.55-4.9 45.6-18.45ZM49.9-27.3L49.8-17.7 49.75-7.05Q49.75-4.7 50.25-3.7L50.25-3.7Q50.5-3.25 51.2-3.05 51.9-2.85 52.8-2.6 53.7-2.35 54.87-2.02 56.05-1.7 57.95-1.7L57.95-1.7 58.95-1.7Q62.35-1.7 64.75-2.68 67.15-3.65 69.35-5.75L69.35-5.75Q73.05-9.3 73.05-17.25L73.05-17.25Q73.05-21.25 71.47-24.5 69.9-27.75 67.35-29.7L67.35-29.7Q62.1-33.65 55.9-33.65L55.9-33.65 53.9-33.65Q51.5-33.65 50.7-32.8L50.7-32.8Q50.3-32.4 50.22-32.1 50.15-31.8 50.02-30.93 49.9-30.05 49.9-29.4L49.9-29.4 49.9-27.3Z" opacity="1" transform="matrix(1,0,0,1,0,0)" fill="#82cd47" class="undefined-text-0" data-fill-palette-color="primary" id="text-0"></path></svg></g></svg></g></svg></g></svg></g><g></g></svg></g></svg></g></svg></g></svg></g><defs></defs></svg><rect width="320" height="360" fill="none" stroke="none" visibility="hidden"></rect></g></svg></g></svg>